#N canvas 2521 143 995 666 12;
#X text 54 17 abc;
#X obj 294 398 >;
#X obj 293 438 change;
#X obj 291 475 sel 1;
#X obj 296 512 t b b;
#X obj 296 557 del 6;
#X obj 295 601 pack 1 200;
#X obj 274 643 line~;
#X msg 423 602 0 5;
#X obj 111 147 delwrite~ violin 10;
#X obj 114 193 delread~ violin 10;
#X obj 283 355 env~ 256 128;
#X obj 263 678 *~;
#X obj 304 695 *~ 3;
#X msg 539 356 40;
#X msg 705 406 300;
#X obj 607 227 loadbang;
#X obj 108 62 *~ 1.0001;
#X obj 290 730 *~ 1.0002;
#X text 139 29 start;
#X obj 107 164 *~ 1.0001;
#X obj 148 373 *~ 1.0002;
#X obj 110 209 *~ 30;
#X obj 145 333 *~ 0.5;
#X obj 327 89 vsl 15 128 0 1 0 0 empty empty empty 0 -9 0 10 -262144
-1 -1 0 1;
#X obj 263 104 vsl 15 128 0 -1 0 0 empty empty empty 0 -9 0 10 -262144
-1 -1 0 1;
#X floatatom 267 330 5 0 0 0 - - -, f 5;
#X floatatom 365 323 5 0 0 0 - - -, f 5;
#X msg 253 38 -0.1;
#X msg 353 40 0.1;
#X obj 295 6 loadbang;
#X obj 118 293 clip~;
#X text 455 35 Les go;
#X obj 474 141 *~ 1.0001;
#X obj 342 411 *~ 1.0002;
#X obj 485 316 clip~ -0.25 0.25;
#X obj 478 224 *~ 20;
#X text 127 72 this is the delay;
#X obj 150 155 *~ 1.0001;
#X obj 335 486 *~ 0.5;
#X obj 205 804 *~ 1.0002;
#X obj 218 250 delwrite~ d 600;
#X obj 202 651 delread~ d 300;
#X obj 0 0 adc~;
#X obj 0 0 dac~;
#X msg 378 115 
; pd dsp 1 
;;
#X obj 376 53 loadbang;
#X connect 43 0 17 0;
#X connect 43 1 17 0;
#X connect 40 0 44 0;
#X connect 40 0 44 1;
#X connect 46 0 45 0;
#X connect 1 0 2 0;
#X connect 2 0 3 0;
#X connect 3 0 4 0;
#X connect 4 0 5 0;
#X connect 4 1 8 0;
#X connect 5 0 6 0;
#X connect 6 0 7 0;
#X connect 7 0 12 1;
#X connect 8 0 7 0;
#X connect 10 0 12 0;
#X connect 11 0 1 0;
#X connect 12 0 13 0;
#X connect 13 0 18 0;
#X connect 14 0 1 1;
#X connect 15 0 6 1;
#X connect 16 0 14 0;
#X connect 16 0 15 0;
#X connect 17 0 9 0;
#X connect 17 0 11 0;
#X connect 20 0 22 0;
#X connect 22 0 31 0;
#X connect 23 0 21 0;
#X connect 24 0 27 0;
#X connect 24 0 31 2;
#X connect 25 0 26 0;
#X connect 25 0 31 1;
#X connect 28 0 25 0;
#X connect 29 0 24 0;
#X connect 30 0 28 0;
#X connect 30 0 29 0;
#X connect 31 0 23 0;
#X connect 33 0 36 0;
#X connect 35 0 34 0;
#X connect 36 0 35 0;
#X connect 38 0 40 0;
#X connect 38 0 41 0;
#X connect 39 0 41 0;
#X connect 42 0 39 0;
#X connect 42 0 40 0;
#X connect 18 0 20 0;
#X connect 21 0 33 0;
#X connect 34 0 38 0;
