#N canvas 2521 143 995 666 12;
#X text 139 29 start;
#X obj 107 164 *~ 1.0001;
#X obj 148 373 *~ 1.0002;
#X obj 110 209 *~ 30;
#X obj 145 333 *~ 0.5;
#X obj 327 89 vsl 15 128 0 1 0 0 empty empty empty 0 -9 0 10 -262144
-1 -1 0 1;
#X obj 263 104 vsl 15 128 0 -1 0 0 empty empty empty 0 -9 0 10 -262144
-1 -1 0 1;
#X floatatom 267 330 5 0 0 0 - - -, f 5;
#X floatatom 365 323 5 0 0 0 - - -, f 5;
#X msg 253 38 -0.1;
#X msg 353 40 0.1;
#X obj 295 6 loadbang;
#X obj 118 293 clip~;

#X text 455 35 Les go;
#X obj 474 141 *~ 1.0001;
#X obj 342 411 *~ 1.0002;
#X obj 485 316 clip~ -0.25 0.25;
#X obj 478 224 *~ 20;

#X text 127 72 this is the delay;
#X obj 150 155 *~ 1.0001;
#X obj 335 486 *~ 0.5;
#X obj 205 804 *~ 1.0002;
#X obj 218 250 delwrite~ d 600;
#X obj 202 651 delread~ d 300;

#X text 27 10 Ha;
#X obj 216 153 sigmund~;
#X obj 411 165 35;
#X obj 227 253 expr if($f1>$f2 \, $f1-$f2 \, 0);
#X obj 222 318 / 40;
#X obj 323 383 *;
#X obj 312 440 expr (1-$f1)*3000;
#X obj 755 66 loadbang;
#X obj 722 189 1;
#X obj 865 189 1;
#X obj 757 245 *;
#X obj 747 296 osc~;
#X obj 874 304 mtof;
#X obj 880 356 *;
#X obj 722 361 *~ 1;
#X obj 730 402 +~ 1;
#X obj 745 442 osc~;
#X obj 902 431 pack 0 10;
#X obj 894 485 line;
#X obj 753 510 *~;
#X obj 860 537 * 1;
#X obj 758 566 +~ 440;
#X obj 858 593 osc~;
#X obj 293 559 pack 0 5;
#X obj 334 620 line~;
#X obj 408 669 *~;
#X obj 1063 356 sel 0 1;
#X obj 1060 398 1;
#X obj 1137 414 0.5;
#X obj 208 101 *~ 1.0001;
#X obj 471 672 *~ 1.0002;

#X text 142 19 start;
#X obj 242 197 clip~ -1 1;
#X obj 245 63 osc~ 8.988;
#X obj 242 146 *~ 3.6659;
#X obj 242 280 *~ 0.354;
#X obj 242 309 +~ 0.645;
#X obj 90 119 *~ 1.0001;
#X obj 138 380 *~ 1.0002;
#X obj 140 333 *~;

#X text 54 17 abc;
#X obj 294 398 >;
#X obj 293 438 change;
#X obj 291 475 sel 1;
#X obj 296 512 t b b;
#X obj 296 557 del 6;
#X obj 295 601 pack 1 200;
#X obj 274 643 line~;
#X msg 423 602 0 5;
#X obj 111 147 delwrite~ violin 10;
#X obj 114 193 delread~ violin 10;
#X obj 283 355 env~ 256 128;
#X obj 263 678 *~;
#X obj 304 695 *~ 3;
#X msg 539 356 40;
#X msg 705 406 300;
#X obj 607 227 loadbang;
#X obj 108 62 *~ 1.0001;
#X obj 290 730 *~ 1.0002;

#X obj 0 0 adc~;
#X obj 0 0 dac~;
#X msg 378 115 
; pd dsp 1 
;;
#X obj 376 53 loadbang;
#X connect 83 0 1 0;
#X connect 83 1 1 0;
#X connect 82 0 84 0;
#X connect 82 0 84 1;
#X connect 86 0 85 0;
#X connect 1 0 3 0;
#X connect 3 0 12 0;
#X connect 4 0 2 0;
#X connect 5 0 8 0;
#X connect 5 0 12 2;
#X connect 6 0 7 0;
#X connect 6 0 12 1;
#X connect 9 0 6 0;
#X connect 10 0 5 0;
#X connect 11 0 9 0;
#X connect 11 0 10 0;
#X connect 12 0 4 0;

#X connect 14 0 17 0;
#X connect 16 0 15 0;
#X connect 17 0 16 0;

#X connect 19 0 21 0;
#X connect 19 0 22 0;
#X connect 20 0 22 0;
#X connect 23 0 20 0;
#X connect 23 0 21 0;

#X connect 25 0 36 0;
#X connect 25 1 27 0;
#X connect 26 0 27 1;
#X connect 27 0 28 0;
#X connect 28 0 29 1;
#X connect 28 0 47 0;
#X connect 28 0 29 0;
#X connect 29 0 30 0;
#X connect 30 0 41 0;
#X connect 31 0 32 0;
#X connect 31 0 33 0;
#X connect 31 0 26 0;
#X connect 32 0 34 1;
#X connect 33 0 37 1;
#X connect 34 0 35 0;
#X connect 35 0 38 0;
#X connect 36 0 34 0;
#X connect 36 0 37 0;
#X connect 36 0 44 0;
#X connect 37 0 39 1;
#X connect 38 0 39 0;
#X connect 39 0 40 0;
#X connect 40 0 43 0;
#X connect 41 0 42 0;
#X connect 42 0 43 1;
#X connect 43 0 45 0;
#X connect 44 0 45 1;
#X connect 45 0 46 0;
#X connect 46 0 49 0;
#X connect 47 0 48 0;
#X connect 48 0 49 1;
#X connect 49 0 54 0;
#X connect 49 0 54 1;
#X connect 50 0 51 0;
#X connect 50 1 52 0;
#X connect 51 0 44 1;
#X connect 53 0 25 0;

#X connect 56 0 59 0;
#X connect 57 0 58 0;
#X connect 58 0 56 0;
#X connect 59 0 60 0;
#X connect 60 0 63 1;
#X connect 61 0 63 0;
#X connect 63 0 62 0;

#X connect 65 0 66 0;
#X connect 66 0 67 0;
#X connect 67 0 68 0;
#X connect 68 0 69 0;
#X connect 68 1 72 0;
#X connect 69 0 70 0;
#X connect 70 0 71 0;
#X connect 71 0 76 1;
#X connect 72 0 71 0;
#X connect 74 0 76 0;
#X connect 75 0 65 0;
#X connect 76 0 77 0;
#X connect 77 0 82 0;
#X connect 78 0 65 1;
#X connect 79 0 70 1;
#X connect 80 0 78 0;
#X connect 80 0 79 0;
#X connect 81 0 73 0;
#X connect 81 0 75 0;

#X connect 2 0 14 0;
#X connect 15 0 19 0;
#X connect 21 0 53 0;
#X connect 54 0 0 0;
#X connect 62 0 0 0;
