#N canvas 0 61 1280 963 10;
#X text 139 29 start;
#X obj 107 164 *~ 1.0001;
#X obj 148 373 *~ 1.0002;
#X obj 110 209 *~ 30;
#X obj 145 333 *~ 0.5;
#X obj 327 89 vsl 15 128 0 1 0 0 empty empty empty 0 -9 0 10 -262144
-1 -1 0 1;
#X obj 263 104 vsl 15 128 0 -1 0 0 empty empty empty 0 -9 0 10 -262144
-1 -1 0 1;
#X floatatom 267 330 5 0 0 0 - - -, f 5;
#X floatatom 365 323 5 0 0 0 - - -, f 5;
#X msg 253 38 -0.1;
#X msg 353 40 0.1;
#X obj 295 6 loadbang;
#X obj 118 293 clip~;
#X connect 1 0 3 0;
#X connect 3 0 12 0;
#X connect 4 0 2 0;
#X connect 5 0 8 0;
#X connect 5 0 12 2;
#X connect 6 0 7 0;
#X connect 6 0 12 1;
#X connect 9 0 6 0;
#X connect 10 0 5 0;
#X connect 11 0 9 0;
#X connect 11 0 10 0;
#X connect 12 0 4 0;
